<svg width="20" height="20" viewBox="0 0 20 20" fill="none" xmlns="http://www.w3.org/2000/svg">
<circle cx="10" cy="10" r="10" fill="#E5E5E5" fill-opacity="0.2"/>
<path d="M13.8889 9.73684C13.8889 10.3632 13.7 10.9474 13.3889 11.4632L12.7056 10.8158C12.8556 10.4895 12.9444 10.1263 12.9444 9.73684H13.8889ZM11.6667 9.82105L8.33333 6.67368V6.57895C8.33333 6.16018 8.50893 5.75857 8.82149 5.46246C9.13405 5.16635 9.55797 5 10 5C10.442 5 10.866 5.16635 11.1785 5.46246C11.4911 5.75857 11.6667 6.16018 11.6667 6.57895V9.73684V9.82105ZM5.70556 5.52632L15 14.3316L14.2944 15L11.9667 12.7947C11.5389 13.0368 11.0611 13.2 10.5556 13.2737V15H9.44444V13.2737C7.62222 13.0158 6.11111 11.5316 6.11111 9.73684H7.05556C7.05556 11.3158 8.46667 12.4211 10 12.4211C10.45 12.4211 10.8889 12.3211 11.2833 12.1474L10.3611 11.2737L10 11.3158C9.55797 11.3158 9.13405 11.1494 8.82149 10.8533C8.50893 10.5572 8.33333 10.1556 8.33333 9.73684V9.35789L5 6.19474L5.70556 5.52632Z" fill="white"/>
</svg>
