<svg width="300" height="169" viewBox="0 0 300 169" fill="none" xmlns="http://www.w3.org/2000/svg">
<rect width="300" height="168.75" fill="black"/>
<circle cx="152.5" cy="83.5" r="18.5" fill="#E5E5E5" fill-opacity="0.2"/>
<path d="M143.473 73L142 74.4734L144.853 77.326H144.09C143.813 77.326 143.547 77.4361 143.351 77.6321C143.155 77.828 143.045 78.0938 143.045 78.371V88.8203C143.045 89.0974 143.155 89.3632 143.351 89.5592C143.547 89.7551 143.813 89.8652 144.09 89.8652H156.629C156.848 89.8652 157.037 89.7816 157.204 89.6771L160.527 93L162 91.5266L152.742 82.2685L143.473 73ZM145.135 87.7753V79.4159H146.943L155.302 87.7753H145.135ZM155.584 79.4159V82.1432L161.854 88.4128V77.8485L157.674 82.0282V78.371C157.674 78.0938 157.564 77.828 157.368 77.6321C157.172 77.4361 156.906 77.326 156.629 77.326H150.767L152.857 79.4159H155.584Z" fill="white"/>
</svg>
